<?xml version="1.0" encoding="UTF-8"?>
<svg id="Layer_1" xmlns="http://www.w3.org/2000/svg" version="1.1" viewBox="0 0 1520 231">
  <!-- Generator: Adobe Illustrator 29.0.0, SVG Export Plug-In . SVG Version: 2.1.0 Build 186)  -->
  <defs>
    <style>
      .st0 {
        fill: #8a2be2;
      }
    </style>
  </defs>
  <path class="st0" d="M78.4,214.3H17.6V43.1h60.8c18.1,0,33.7,3.6,46.7,10.7,13,7.2,23,17.1,30,29.8,7,12.7,10.5,27.4,10.5,44.1s-3.6,31.4-10.7,44.5c-7.2,13.1-17.3,23.4-30.4,30.9-13.1,7.5-28.5,11.2-46.1,11.2ZM53.9,74.4v108.7h22.7c11.4,0,21-2.1,28.7-6.4,7.7-4.3,13.5-10.6,17.4-18.8,3.9-8.3,5.8-18.3,5.8-30s-1.9-21.1-5.8-29.1c-3.9-7.9-9.7-14-17.4-18.1-7.7-4.1-17.3-6.2-28.7-6.2h-22.7Z"/>
  <path class="st0" d="M295.4,214.3l-45.8-131.6-46.7,131.6h-36.5L230.8,43.1h39.6l63.9,171.2h-38.9ZM211.7,148.8h75.8l9.5,28.9h-95.9l10.5-28.9Z"/>
  <path class="st0" d="M481.6,161.1c0,10.8-2.8,20.4-8.3,28.7-5.6,8.3-13.5,14.9-23.7,19.7-10.3,4.8-22.6,7.2-37.1,7.2s-26.7-2.4-37.3-7.3c-10.6-4.8-18.9-11.7-24.9-20.6-6-8.9-9.5-19.4-10.5-31.5h36.7c.5,9.5,3.7,17.1,9.7,22.7,6,5.6,14.5,8.3,25.6,8.3s11.6-.9,16.3-2.6c4.7-1.7,8.4-4.3,11.1-7.6,2.7-3.3,4.1-7.2,4.1-11.7s-2-9.7-6-13c-4-3.3-9.6-5.6-16.9-7l-28.1-5.5c-6.5-1.1-12.6-2.9-18.1-5.5-5.6-2.5-10.4-5.7-14.5-9.5-4.1-3.8-7.4-8.4-9.8-13.8-2.4-5.4-3.6-11.6-3.6-18.6,0-10.2,2.7-19.2,8.2-27.2,5.5-7.9,13-14.1,22.7-18.6,9.6-4.4,20.6-6.7,33-6.7s24.3,2.4,34.3,7.2,18.1,11.5,24.3,20.1c6.2,8.7,9.6,19,10.3,30.9h-36.7c-.3-6-1.9-11.3-4.6-15.9-2.8-4.5-6.5-8-11.1-10.5-4.6-2.5-9.9-3.7-16-3.7s-10.8,1-14.9,3c-4.1,2-7.2,4.6-9.4,7.9-2.2,3.3-3.3,7-3.3,11.1s1.1,7,3.2,9.5c2.1,2.5,5,4.6,8.5,6.1,3.5,1.5,7.3,2.7,11.4,3.5l29.3,6c15.1,3,26.6,8.1,34.5,15.4,7.9,7.2,11.8,17.1,11.8,29.7Z"/>
  <path class="st0" d="M544.6,214.3h-36.2V43.1h36.2v67.5h74.2V43.1h36.2v171.2h-36.2v-72.5h-74.2v72.5Z"/>
  <path class="st0" d="M818.3,164c0,15.7-5.4,28.1-16.3,37-10.9,8.9-25.8,13.4-44.7,13.4h-67V43.1h64.4c18,0,32.1,3.9,42.6,11.8,10.4,7.9,15.6,19.1,15.6,33.7s-2.1,14.8-6.3,21c-4.2,6.2-10.1,11.3-17.8,15.3,9.5,3.3,16.8,8.3,21.9,14.9,5.1,6.6,7.6,14.7,7.6,24.2ZM751.8,71.7h-28.6v39.8h28.6c8.9,0,15.6-1.8,20-5.4,4.4-3.6,6.7-8.5,6.7-14.7s-2.2-10.8-6.7-14.4c-4.5-3.6-11.1-5.4-20-5.4ZM754.4,140.4h-31.2v45.3h31.2c9.9,0,17.3-2.1,22.3-6.2,5-4.1,7.5-9.8,7.5-16.9s-2.5-12.2-7.5-16.2c-5-4-12.4-6-22.3-6Z"/>
  <path class="st0" d="M923.9,217.9c-12.4,0-23.9-2.2-34.5-6.7-10.6-4.4-19.8-10.7-27.8-18.7-8-8-14.1-17.5-18.6-28.4-4.5-10.9-6.7-22.8-6.7-35.6s2.2-24.7,6.7-35.5c4.4-10.8,10.6-20.2,18.6-28.1,7.9-7.9,17.2-14.1,27.8-18.6,10.6-4.4,22.1-6.7,34.5-6.7s23.9,2.2,34.6,6.7c10.6,4.5,20,10.7,28,18.6,8,8,14.3,17.3,18.7,28.1,4.4,10.8,6.7,22.7,6.7,35.5s-2.2,24.8-6.7,35.6c-4.5,10.9-10.7,20.3-18.7,28.4-8,8-17.4,14.3-28,18.7-10.7,4.4-22.2,6.7-34.6,6.7ZM923.9,185.5c7.8,0,14.8-1.5,21.1-4.4,6.3-2.9,11.6-7,16-12.3,4.4-5.2,7.7-11.3,10-18.2,2.3-6.9,3.5-14.3,3.5-22.1s-1.2-15.1-3.5-21.9c-2.3-6.8-5.6-12.8-10-18-4.4-5.2-9.7-9.2-16-12.2-6.3-2.9-13.3-4.4-21.1-4.4s-14.8,1.5-21,4.4c-6.2,2.9-11.5,7-15.9,12.2-4.4,5.2-7.7,11.2-10,18-2.3,6.8-3.5,14.1-3.5,21.9s1.2,15.1,3.5,22.1c2.3,6.9,5.6,13,10,18.2,4.4,5.2,9.7,9.3,15.9,12.3,6.2,2.9,13.2,4.4,21,4.4Z"/>
  <path class="st0" d="M1141.4,214.3l-45.8-131.6-46.7,131.6h-36.5l64.4-171.2h39.6l63.9,171.2h-38.9ZM1057.7,148.8h75.8l9.5,28.9h-95.8l10.5-28.9Z"/>
  <path class="st0" d="M1237.2,214.3h-36.2V43.1h67c21.6,0,38.4,4.8,50.3,14.4,11.9,9.6,17.9,23.3,17.9,41.1s-3.4,21.6-10.1,30.4c-6.8,8.8-16.3,15.2-28.5,19.2l44.1,66h-43.2l-38.6-60.6h-22.7v60.6ZM1237.2,73.2v50.8h29.1c11,0,19.3-2.1,25-6.3,5.7-4.2,8.6-10.5,8.6-19s-2.9-15-8.6-19.2c-5.7-4.2-14.1-6.3-25-6.3h-29.1Z"/>
  <path class="st0" d="M1425.1,214.3h-60.8V43.1h60.8c18.1,0,33.7,3.6,46.7,10.7,13,7.2,23,17.1,30,29.8,7,12.7,10.5,27.4,10.5,44.1s-3.6,31.4-10.7,44.5c-7.2,13.1-17.3,23.4-30.4,30.9-13.1,7.5-28.5,11.2-46.1,11.2ZM1400.5,74.4v108.7h22.7c11.4,0,21-2.1,28.7-6.4,7.7-4.3,13.5-10.6,17.4-18.8,3.9-8.3,5.8-18.3,5.8-30s-1.9-21.1-5.8-29.1c-3.9-7.9-9.7-14-17.4-18.1-7.7-4.1-17.3-6.2-28.7-6.2h-22.7Z"/>
</svg>