<?xml version="1.0" encoding="UTF-8"?>
<svg id="Layer_1" xmlns="http://www.w3.org/2000/svg" version="1.1" viewBox="0 0 1520 216">
  <!-- Generator: Adobe Illustrator 29.0.0, SVG Export Plug-In . SVG Version: 2.1.0 Build 186)  -->
  <defs>
    <style>
      .st0 {
        fill: #8a2be2;
      }
    </style>
  </defs>
  <path class="st0" d="M149.7,207.8H28.2V19.9h39.8v152.1h81.7v35.9Z"/>
  <path class="st0" d="M222.4,184.5c0,7.2-2.3,13-6.8,17.7-4.5,4.6-10.4,6.9-17.5,6.9s-13-2.3-17.7-6.9c-4.6-4.6-6.9-10.5-6.9-17.7s2.3-13.3,6.9-17.9c4.6-4.6,10.5-6.9,17.7-6.9s13,2.3,17.5,6.9c4.5,4.6,6.8,10.6,6.8,17.9Z"/>
  <path class="st0" d="M381.3,207.8l-50.2-144.5-51.3,144.5h-40L310.4,19.9h43.4l70.1,187.9h-42.7ZM289.4,135.8h83.2l10.5,31.7h-105.2l11.5-31.7Z"/>
  <path class="st0" d="M490.2,184.5c0,7.2-2.3,13-6.8,17.7-4.5,4.6-10.4,6.9-17.5,6.9s-13-2.3-17.7-6.9c-4.6-4.6-6.9-10.5-6.9-17.7s2.3-13.3,6.9-17.9c4.6-4.6,10.5-6.9,17.7-6.9s13,2.3,17.5,6.9c4.5,4.6,6.8,10.6,6.8,17.9Z"/>
  <path class="st0" d="M588.8,146.6h-29.6v61.2h-39.8V19.9h69.4c15.4,0,28.6,2.4,39.6,7.1,11.1,4.7,19.6,11.7,25.6,20.9,6,9.2,9,20.8,9,34.5s-3,25.2-9,34.8c-6,9.6-14.6,16.9-25.6,21.9-11.1,5-24.3,7.5-39.6,7.5ZM588.6,53.4h-29.3v59.7h29.3c11.2,0,19.8-2.7,25.9-8.2,6.1-5.5,9.2-12.9,9.2-22.1s-3.1-16.4-9.2-21.6c-6.1-5.1-14.7-7.7-25.9-7.7Z"/>
  <path class="st0" d="M812.6,152.1h-79.8v-32.5h79.8v32.5Z"/>
  <path class="st0" d="M976.9,211.7c-13.1,0-25.4-2.5-36.9-7.5s-21.5-11.9-30.1-20.9c-8.6-9-15.2-19.4-20-31.3-4.8-11.9-7.2-24.7-7.2-38.5s2.4-26.6,7.2-38.3c4.8-11.8,11.5-22.1,20-31,8.5-8.9,18.6-15.8,30.1-20.8s23.8-7.5,36.9-7.5,31.6,3.4,45.1,10.2c13.5,6.8,24.6,16.3,33.4,28.5,8.7,12.2,14.1,26.3,16.2,42.4h-42.1c-1.4-9.1-4.6-17-9.6-23.8-5-6.8-11.1-12.1-18.3-16-7.2-3.8-15.3-5.8-24.2-5.8s-15.6,1.5-22.1,4.4c-6.5,3-12.2,7.2-17,12.8-4.8,5.6-8.5,12.2-11,19.8-2.5,7.6-3.8,15.9-3.8,25s1.3,17.7,3.8,25.3c2.5,7.6,6.2,14.2,11,19.8,4.8,5.6,10.5,9.9,17,13,6.5,3.1,13.9,4.6,22.1,4.6s17-2,24.3-5.9,13.4-9.3,18.2-16.2c4.8-6.9,8-14.8,9.6-23.7h42.1c-2.3,16.2-7.8,30.4-16.5,42.7-8.7,12.2-19.8,21.7-33.2,28.5-13.4,6.8-28.4,10.2-45,10.2Z"/>
  <path class="st0" d="M1184.7,207.8l-49.2-124.8v124.8h-36.1V19.9h47.6l54.4,139.2,54.7-139.2h47.6v187.9h-36.1v-125.9l-49.7,125.9h-33.2Z"/>
  <path class="st0" d="M1486.5,149.4c0,11.9-3.1,22.4-9.2,31.5-6.1,9.2-14.8,16.4-26,21.6s-24.8,7.9-40.7,7.9-29.4-2.7-41-8c-11.6-5.3-20.7-12.9-27.3-22.6-6.6-9.8-10.5-21.3-11.5-34.5h40.3c.5,10.5,4.1,18.8,10.6,24.9,6.5,6.1,15.9,9.2,28.1,9.2s12.8-1,17.9-2.9c5.1-1.9,9.2-4.7,12.2-8.4,3-3.7,4.4-7.9,4.4-12.8s-2.2-10.7-6.5-14.3c-4.4-3.6-10.6-6.2-18.6-7.7l-30.9-6c-7.2-1.2-13.8-3.2-19.9-6-6.1-2.8-11.4-6.3-16-10.5-4.5-4.2-8.1-9.2-10.7-15.2-2.6-5.9-3.9-12.7-3.9-20.4,0-11.2,3-21.1,9-29.8,6-8.7,14.3-15.5,24.9-20.4,10.6-4.9,22.6-7.3,36.2-7.3s26.7,2.6,37.7,7.9c11,5.2,19.9,12.6,26.7,22.1,6.8,9.5,10.6,20.8,11.3,33.9h-40.3c-.4-6.6-2.1-12.4-5.1-17.4-3.1-5-7.1-8.8-12.2-11.5-5.1-2.7-10.9-4.1-17.5-4.1s-11.9,1.1-16.4,3.3c-4.4,2.2-7.9,5.1-10.3,8.6-2.4,3.6-3.7,7.6-3.7,12.2s1.2,7.7,3.5,10.5c2.4,2.8,5.5,5,9.3,6.7,3.8,1.7,8,2.9,12.6,3.8l32.2,6.5c16.6,3.3,29.2,8.9,37.8,16.9,8.6,7.9,13,18.8,13,32.6Z"/>
</svg>