<?xml version="1.0" encoding="UTF-8"?>
<svg id="Layer_1" xmlns="http://www.w3.org/2000/svg" version="1.1" viewBox="0 0 1520 231">
  <!-- Generator: Adobe Illustrator 29.0.0, SVG Export Plug-In . SVG Version: 2.1.0 Build 186)  -->
  <defs>
    <style>
      .st0 {
        fill: #8a2be2;
      }
    </style>
  </defs>
  <path class="st0" d="M486,219.4l-95.2-144.9v144.9h-40.2V11.8h47.4l90.5,137.7V11.8h40.5v207.7h-43.1Z"/>
  <path class="st0" d="M711.6,181.3v38.2h-139.7V11.8h137.7v38.2h-93.7v43.7h85v37.9h-85v49.7h95.7Z"/>
  <path class="st0" d="M903.3,219.4l-38.8-145.2-38.8,145.2h-44.5l-53.2-207.7h42.8l33.5,140.8,38.2-140.8h44.8l37,141.4,33.8-141.4h43.1l-53.5,207.7h-44.5Z"/>
  <path class="st0" d="M1179.8,154.9c0,13.1-3.4,24.7-10.1,34.8-6.8,10.1-16.3,18.1-28.8,23.9-12.4,5.8-27.4,8.7-45,8.7s-32.4-2.9-45.3-8.8c-12.8-5.9-22.9-14.2-30.2-25-7.3-10.8-11.6-23.5-12.7-38.2h44.5c.6,11.6,4.5,20.7,11.7,27.5,7.2,6.8,17.6,10.1,31.1,10.1s14.1-1.1,19.8-3.2c5.7-2.1,10.2-5.2,13.4-9.3,3.3-4,4.9-8.8,4.9-14.2s-2.4-11.8-7.2-15.8c-4.8-4-11.7-6.8-20.5-8.5l-34.1-6.7c-7.9-1.3-15.2-3.6-22-6.7-6.8-3.1-12.6-6.9-17.6-11.6-5-4.6-9-10.2-11.9-16.8-2.9-6.6-4.3-14.1-4.3-22.6,0-12.3,3.3-23.3,10-33,6.7-9.6,15.8-17.2,27.5-22.6,11.7-5.4,25-8.1,40.1-8.1s29.5,2.9,41.6,8.7c12.1,5.8,22,13.9,29.5,24.4,7.5,10.5,11.7,23,12.4,37.5h-44.5c-.4-7.3-2.3-13.7-5.6-19.2-3.4-5.5-7.9-9.7-13.4-12.7-5.6-3-12.1-4.5-19.4-4.5s-13.2,1.2-18.1,3.6c-4.9,2.4-8.7,5.6-11.4,9.5-2.7,4-4,8.4-4,13.4s1.3,8.5,3.9,11.6c2.6,3.1,6,5.5,10.3,7.4,4.2,1.8,8.9,3.2,13.9,4.2l35.6,7.2c18.3,3.7,32.2,9.9,41.8,18.7,9.5,8.8,14.3,20.8,14.3,36Z"/>
</svg>