<?xml version="1.0" encoding="UTF-8"?>
<svg id="Layer_1" xmlns="http://www.w3.org/2000/svg" version="1.1" viewBox="0 0 1520 231">
  <!-- Generator: Adobe Illustrator 29.0.0, SVG Export Plug-In . SVG Version: 2.1.0 Build 186)  -->
  <defs>
    <style>
      .st0 {
        fill: #8a2be2;
      }
    </style>
  </defs>
  <path class="st0" d="M98,204.1l-48.1-122v122H14.6V20.5h46.5l53.2,136L167.8,20.5h46.5v183.6h-35.3v-123l-48.6,123h-32.5Z"/>
  <path class="st0" d="M338.3,135.1v69h-38.9v-69L234.5,20.5h41.9l43.7,79,44.5-79h39.1l-65.5,114.5Z"/>
  <path class="st0" d="M545.4,144.3h-28.9v59.8h-38.9V20.5h67.8c15,0,27.9,2.3,38.7,6.9,10.8,4.6,19.2,11.4,25.1,20.5,5.9,9,8.8,20.3,8.8,33.7s-2.9,24.6-8.8,34c-5.9,9.4-14.2,16.5-25.1,21.3-10.8,4.9-23.7,7.3-38.7,7.3ZM545.1,53.3h-28.6v58.3h28.6c10.9,0,19.3-2.7,25.3-8.1,6-5.4,8.9-12.6,8.9-21.6s-3-16.1-8.9-21.1c-6-5-14.4-7.5-25.3-7.5Z"/>
  <path class="st0" d="M683.2,204.1h-38.9V20.5h71.8c23.2,0,41.2,5.2,53.9,15.5,12.8,10.3,19.2,25,19.2,44.1s-3.6,23.1-10.9,32.6c-7.2,9.5-17.4,16.3-30.6,20.6l47.3,70.8h-46.3l-41.4-64.9h-24.3v64.9ZM683.2,52.8v54.5h31.2c11.8,0,20.7-2.3,26.8-6.8,6.1-4.5,9.2-11.3,9.2-20.3s-3.1-16.1-9.2-20.6c-6.1-4.5-15.1-6.8-26.8-6.8h-31.2Z"/>
  <path class="st0" d="M901.5,208c-13.3,0-25.6-2.4-36.9-7.2-11.3-4.8-21.3-11.5-29.8-20.1-8.5-8.6-15.2-18.7-19.9-30.4-4.8-11.7-7.2-24.4-7.2-38.2s2.4-26.5,7.2-38.1c4.8-11.6,11.4-21.6,19.9-30.2,8.5-8.5,18.4-15.2,29.8-19.9,11.3-4.8,23.6-7.2,36.9-7.2s25.7,2.4,37.1,7.2c11.4,4.8,21.4,11.4,30,19.9,8.6,8.5,15.3,18.6,20.1,30.2,4.8,11.6,7.2,24.3,7.2,38.1s-2.4,26.5-7.2,38.2c-4.8,11.7-11.5,21.8-20.1,30.4-8.6,8.6-18.6,15.3-30,20.1-11.4,4.8-23.8,7.2-37.1,7.2ZM901.5,173.2c8.3,0,15.9-1.6,22.6-4.7,6.7-3.2,12.4-7.5,17.1-13.2,4.7-5.6,8.3-12.1,10.7-19.6,2.5-7.4,3.7-15.3,3.7-23.6s-1.2-16.2-3.7-23.5c-2.5-7.3-6.1-13.8-10.7-19.3-4.7-5.5-10.4-9.9-17.1-13-6.7-3.2-14.3-4.7-22.6-4.7s-15.9,1.6-22.5,4.7c-6.6,3.2-12.3,7.5-17,13-4.7,5.5-8.3,12-10.7,19.3-2.5,7.3-3.7,15.2-3.7,23.5s1.2,16.2,3.7,23.6c2.5,7.4,6,13.9,10.7,19.6,4.7,5.6,10.4,10,17,13.2,6.6,3.2,14.1,4.7,22.5,4.7Z"/>
  <path class="st0" d="M1061.6,204.1h-38.9V20.5h118.6v33.7h-79.8v46.3h67.2v33.5h-67.2v70.1Z"/>
  <path class="st0" d="M1206.8,204.1h-38.9V20.5h38.9v183.6Z"/>
  <path class="st0" d="M1363,204.1h-118.6V20.5h38.9v148.5h79.8v35Z"/>
  <path class="st0" d="M1513.1,170.4v33.7h-123.5V20.5h121.7v33.7h-82.8v38.6h75.2v33.5h-75.2v44h84.6Z"/>
</svg>