<?xml version="1.0" encoding="UTF-8"?>
<svg id="Layer_1" xmlns="http://www.w3.org/2000/svg" version="1.1" viewBox="0 0 1520 231">
  <!-- Generator: Adobe Illustrator 29.0.0, SVG Export Plug-In . SVG Version: 2.1.0 Build 186)  -->
  <defs>
    <style>
      .st0 {
        fill: #8a2be2;
      }
    </style>
  </defs>
  <path class="st0" d="M298,150.5h-29.9v61.9h-40.2V22.3h70.2c15.5,0,28.9,2.4,40.1,7.1,11.2,4.8,19.9,11.8,25.9,21.2,6.1,9.4,9.1,21,9.1,34.9s-3,25.5-9.1,35.2c-6.1,9.7-14.7,17.1-25.9,22.1-11.2,5-24.6,7.5-40.1,7.5ZM297.8,56.2h-29.7v60.4h29.7c11.3,0,20-2.8,26.2-8.3,6.2-5.6,9.3-13,9.3-22.4s-3.1-16.6-9.3-21.8c-6.2-5.2-14.9-7.8-26.2-7.8Z"/>
  <path class="st0" d="M440.7,212.4h-40.2V22.3h74.4c24,0,42.6,5.3,55.9,16,13.2,10.7,19.9,25.9,19.9,45.7s-3.8,24-11.3,33.8c-7.5,9.8-18,16.9-31.6,21.3l49,73.3h-47.9l-42.9-67.2h-25.1v67.2ZM440.7,55.7v56.4h32.3c12.2,0,21.4-2.3,27.8-7,6.4-4.7,9.5-11.7,9.5-21s-3.2-16.6-9.5-21.3c-6.4-4.7-15.6-7-27.8-7h-32.3Z"/>
  <path class="st0" d="M666.8,216.4c-13.8,0-26.5-2.5-38.3-7.4-11.7-4.9-22-11.9-30.8-20.8-8.8-8.9-15.7-19.4-20.6-31.5-4.9-12.1-7.4-25.3-7.4-39.6s2.5-27.4,7.4-39.4c4.9-12,11.8-22.4,20.6-31.2s19.1-15.7,30.8-20.6c11.7-4.9,24.5-7.4,38.3-7.4s26.6,2.5,38.4,7.4c11.8,4.9,22.2,11.8,31.1,20.6,8.9,8.8,15.8,19.2,20.8,31.2,4.9,12,7.4,25.1,7.4,39.4s-2.5,27.5-7.4,39.6c-4.9,12.1-11.9,22.6-20.8,31.5s-19.3,15.8-31.1,20.8c-11.8,4.9-24.6,7.4-38.4,7.4ZM666.8,180.4c8.6,0,16.5-1.6,23.4-4.9,7-3.3,12.9-7.8,17.7-13.6,4.9-5.8,8.6-12.6,11.1-20.3,2.6-7.7,3.8-15.8,3.8-24.5s-1.3-16.8-3.8-24.4c-2.6-7.6-6.3-14.2-11.1-20-4.9-5.7-10.8-10.2-17.7-13.5-7-3.3-14.8-4.9-23.4-4.9s-16.4,1.6-23.3,4.9c-6.9,3.3-12.8,7.8-17.6,13.5-4.9,5.7-8.6,12.4-11.1,20-2.6,7.6-3.8,15.7-3.8,24.4s1.3,16.8,3.8,24.5c2.6,7.7,6.3,14.4,11.1,20.3,4.9,5.8,10.7,10.4,17.6,13.6,6.9,3.3,14.6,4.9,23.3,4.9Z"/>
  <path class="st0" d="M832.5,212.4h-40.2V22.3h122.8v34.9h-82.6v47.9h69.6v34.7h-69.6v72.5Z"/>
  <path class="st0" d="M982.9,212.4h-40.2V22.3h40.2v190.1Z"/>
  <path class="st0" d="M1144.7,212.4h-122.8V22.3h40.2v153.8h82.6v36.3Z"/>
  <path class="st0" d="M1300.1,177.5v34.9h-127.9V22.3h126v34.9h-85.8v40h77.8v34.7h-77.8v45.5h87.6Z"/>
</svg>