<?xml version="1.0" encoding="UTF-8"?>
<svg id="Layer_1" xmlns="http://www.w3.org/2000/svg" version="1.1" viewBox="0 0 1520 231">
  <!-- Generator: Adobe Illustrator 29.0.0, SVG Export Plug-In . SVG Version: 2.1.0 Build 186)  -->
  <defs>
    <style>
      .st0 {
        fill: #8a2be2;
      }
    </style>
  </defs>
  <path class="st0" d="M73.6,176.3h-28.3v-108.2H3.2v-25.5h112.7v25.5h-42.3v108.2Z"/>
  <path class="st0" d="M222.8,151.7v24.6h-90V42.5h88.7v24.6h-60.4v28.1h54.8v24.4h-54.8v32h61.7Z"/>
  <path class="st0" d="M334.2,176.3l-35.8-102.8-36.5,102.8h-28.5l50.3-133.7h30.9l49.9,133.7h-30.4ZM268.8,125h59.2l7.5,22.5h-74.9l8.2-22.5Z"/>
  <path class="st0" d="M441.5,176.3l-35-88.9v88.9h-25.7V42.5h33.9l38.7,99.1,38.9-99.1h33.9v133.7h-25.7v-89.6l-35.4,89.6h-23.7Z"/>
  <path class="st0" d="M653.3,176.3l-35-88.9v88.9h-25.7V42.5h33.9l38.7,99.1,38.9-99.1h33.9v133.7h-25.7v-89.6l-35.4,89.6h-23.7Z"/>
  <path class="st0" d="M855.4,151.7v24.6h-90V42.5h88.7v24.6h-60.4v28.1h54.8v24.4h-54.8v32h61.7Z"/>
  <path class="st0" d="M938.1,176.3l-35-88.9v88.9h-25.7V42.5h33.9l38.7,99.1,38.9-99.1h33.9v133.7h-25.7v-89.6l-35.4,89.6h-23.7Z"/>
  <path class="st0" d="M1150.2,137c0,12.3-4.3,21.9-12.8,28.9-8.5,7-20.1,10.4-34.9,10.4h-52.3V42.5h50.3c14,0,25.1,3.1,33.2,9.2,8.1,6.1,12.2,14.9,12.2,26.4s-1.6,11.5-4.9,16.4c-3.3,4.8-7.9,8.8-13.9,11.9,7.5,2.6,13.2,6.5,17.1,11.6,4,5.2,6,11.5,6,18.9ZM1098.3,64.9h-22.4v31.1h22.4c7,0,12.2-1.4,15.6-4.2,3.5-2.8,5.2-6.6,5.2-11.5s-1.7-8.5-5.2-11.3c-3.5-2.8-8.7-4.2-15.6-4.2ZM1100.3,118.5h-24.4v35.4h24.4c7.7,0,13.5-1.6,17.4-4.8,3.9-3.2,5.9-7.6,5.9-13.2s-2-9.6-5.9-12.7c-3.9-3.1-9.7-4.7-17.4-4.7Z"/>
  <path class="st0" d="M1260.7,151.7v24.6h-90V42.5h88.7v24.6h-60.4v28.1h54.8v24.4h-54.8v32h61.7Z"/>
  <path class="st0" d="M1311,176.3h-28.3V42.5h52.3c16.9,0,30,3.8,39.3,11.3,9.3,7.5,14,18.2,14,32.1s-2.6,16.9-7.9,23.8c-5.3,6.9-12.7,11.9-22.3,15l34.5,51.6h-33.7l-30.2-47.3h-17.7v47.3ZM1311,66v39.7h22.7c8.6,0,15.1-1.6,19.6-4.9,4.5-3.3,6.7-8.2,6.7-14.8s-2.2-11.7-6.7-15c-4.5-3.3-11-4.9-19.6-4.9h-22.7Z"/>
  <path class="st0" d="M1512.9,134.7c0,8.4-2.2,15.9-6.5,22.4-4.3,6.5-10.5,11.6-18.5,15.4s-17.7,5.6-29,5.6-20.9-1.9-29.2-5.7c-8.3-3.8-14.7-9.2-19.5-16.1-4.7-7-7.5-15.1-8.2-24.6h28.7c.4,7.5,2.9,13.4,7.5,17.7,4.7,4.3,11.3,6.5,20,6.5s9.1-.7,12.8-2c3.7-1.4,6.5-3.4,8.7-6,2.1-2.6,3.2-5.6,3.2-9.1s-1.6-7.6-4.7-10.2c-3.1-2.5-7.5-4.4-13.2-5.5l-22-4.3c-5.1-.9-9.8-2.3-14.2-4.3-4.3-2-8.1-4.5-11.4-7.5-3.2-3-5.8-6.6-7.6-10.8-1.9-4.2-2.8-9.1-2.8-14.5,0-7.9,2.1-15,6.4-21.2,4.3-6.2,10.2-11.1,17.7-14.5,7.5-3.5,16.1-5.2,25.8-5.2s19,1.9,26.8,5.6c7.8,3.7,14.2,9,19,15.7,4.8,6.8,7.5,14.8,8,24.1h-28.7c-.2-4.7-1.5-8.8-3.6-12.4-2.2-3.5-5.1-6.3-8.7-8.2-3.6-1.9-7.8-2.9-12.5-2.9s-8.5.8-11.6,2.3c-3.2,1.6-5.6,3.6-7.4,6.1-1.7,2.5-2.6,5.4-2.6,8.7s.8,5.5,2.5,7.5c1.7,2,3.9,3.6,6.6,4.8,2.7,1.2,5.7,2.1,8.9,2.7l22.9,4.7c11.8,2.4,20.8,6.4,26.9,12,6.1,5.7,9.2,13.4,9.2,23.2Z"/>
</svg>